# xmcd
#
# Track frame offsets:
#	150
#	13225
#	27441
#	42367
#	56160
#	70154
#	84823
#	100790
#	119110
#	134186
#	155180
#	166336
#	182989
#
# Disc length: 2608 seconds
#
# Revision: 1265390417
# Processed by: cddbd v1.5.2PL0 Copyright (c) Steve Scherf et al.
# Submitted via: EZCDAudioConverter 8.0.2.1
#
DISCID=bf0a2e0d
DTITLE=Brian Young - The Last Of The Travelling Showmen
DYEAR=2007
DGENRE=Country
TTITLE0=Brian Young and Troy Cassar Daly - That Old Wheel
TTITLE1=Brian Young and Royden Donohue - Champion In The Making
TTITLE2=Brian Young - Land Of The Flying Jabaru
TTITLE3=Brian Young and Shaza Leigh - Round and Round
TTITLE4=Brian Young and Troy Cassar Daly - Big Fella Wudumbah
TTITLE5=Brian Young  - Stockmans Hall Of Fame
TTITLE6=Brian Young  - Annie
TTITLE7=Brian Young and Laura Downing - Im Not To Proud
TTITLE8=Brian Young and Kathryn Pitt - Ships Of The Desert
TTITLE9=Brian Young  - The Land Of Ringer Trumby
TTITLE10=Brian Young  - Tjilpi
TTITLE11=Brian Young  - The last of the Travelling Showmen
TTITLE12=Brian Young and The Kootingal Scholl Chior - I'm Proud To Be An Aussie
EXTD=
EXTT0=
EXTT1=
EXTT2=
EXTT3=
EXTT4=
EXTT5=
EXTT6=
EXTT7=
EXTT8=
EXTT9=
EXTT10=
EXTT11=
EXTT12=
PLAYORDER=
